<?xml version="1.0" encoding="UTF-8" standalone="no"?>
<!-- Created with Inkscape (http://www.inkscape.org/) -->

<svg
   width="800"
   height="272.09952"
   viewBox="0 0 211.66667 71.993"
   version="1.1"
   id="svg1381"
   inkscape:version="1.2.2 (b0a8486541, 2022-12-01)"
   sodipodi:docname="logo-with-name.svg"
   inkscape:export-filename="../Sites/cayenne-forms/resources/svg/logos/wordmark.svg"
   inkscape:export-xdpi="96"
   inkscape:export-ydpi="96"
   xmlns:inkscape="http://www.inkscape.org/namespaces/inkscape"
   xmlns:sodipodi="http://sodipodi.sourceforge.net/DTD/sodipodi-0.dtd"
   xmlns:xlink="http://www.w3.org/1999/xlink"
   xmlns="http://www.w3.org/2000/svg"
   xmlns:svg="http://www.w3.org/2000/svg">
  <sodipodi:namedview
     id="namedview1383"
     pagecolor="#ffffff"
     bordercolor="#000000"
     borderopacity="0.25"
     inkscape:showpageshadow="2"
     inkscape:pageopacity="0.0"
     inkscape:pagecheckerboard="0"
     inkscape:deskcolor="#d1d1d1"
     inkscape:document-units="mm"
     showgrid="true"
     inkscape:zoom="0.7688061"
     inkscape:cx="558.65842"
     inkscape:cy="165.1912"
     inkscape:window-width="2560"
     inkscape:window-height="1015"
     inkscape:window-x="0"
     inkscape:window-y="0"
     inkscape:window-maximized="1"
     inkscape:current-layer="text1601">
    <inkscape:grid
       type="xygrid"
       id="grid1001"
       originx="0"
       originy="-82.595624" />
  </sodipodi:namedview>
  <defs
     id="defs1378" />
  <g
     inkscape:label="Layer 1"
     inkscape:groupmode="layer"
     id="layer1">
    <g
       id="g1252"
       transform="matrix(0.58844261,0,0,0.58844261,-18.348334,-41.329219)">
      <g
         aria-label="Cayenne Forms"
         id="text1601"
         style="font-size:36.8957px;letter-spacing:0px;fill:#2ca055;stroke:#ffffff;stroke-width:0.676255;paint-order:stroke markers fill">
        <path
           d="m 123.40737,145.71667 q -3.76337,0 -6.67813,-1.6972 -2.91476,-1.7341 -4.57506,-4.72265 -1.66031,-3.02544 -1.66031,-6.93639 0,-3.91094 1.66031,-6.89949 1.6603,-3.02545 4.53817,-4.72265 2.91476,-1.7341 6.67812,-1.7341 2.65649,0 4.94402,0.95929 2.28754,0.92239 3.98474,2.61959 1.7341,1.66031 2.65649,3.83715 l -4.68575,1.7341 q -0.62723,-1.36514 -1.66031,-2.36132 -1.03308,-1.03308 -2.36133,-1.58652 -1.32824,-0.59033 -2.87786,-0.59033 -2.25064,0 -4.02163,1.14377 -1.7341,1.10687 -2.73028,3.06234 -0.95929,1.95547 -0.95929,4.53817 0,2.5827 0.99618,4.57507 0.99619,1.95547 2.76718,3.09924 1.77099,1.10687 4.05853,1.10687 1.58651,0 2.87786,-0.59033 1.32825,-0.62723 2.32443,-1.69721 1.03308,-1.06997 1.66031,-2.47201 l 4.68575,1.6972 q -0.92239,2.25064 -2.65649,3.98474 -1.6972,1.7341 -3.98474,2.69339 -2.28753,0.95928 -4.98091,0.95928 z"
           style="font-weight:bold;font-family:Figtree;-inkscape-font-specification:'Figtree Bold';text-align:center;text-anchor:middle;fill:#111827"
           id="path1641" />
        <path
           d="m 149.12368,145.27393 -0.18448,-3.72647 v -5.60815 q 0,-1.6603 -0.36895,-2.80407 -0.36896,-1.18066 -1.14377,-1.77099 -0.73791,-0.62723 -1.99237,-0.62723 -1.10687,0 -1.99237,0.47964 -0.88549,0.47965 -1.51272,1.54962 l -4.42748,-1.51272 q 0.51654,-1.18066 1.51272,-2.28753 0.99618,-1.14377 2.5827,-1.84479 1.62341,-0.73791 3.94784,-0.73791 2.76718,0 4.61196,0.99618 1.88168,0.99619 2.80407,2.95166 0.9224,1.91857 0.8855,4.72265 l -0.11069,10.22011 z m -5.0916,0.44274 q -3.32062,0 -5.1654,-1.47582 -1.80789,-1.47583 -1.80789,-4.16922 0,-2.95165 1.95547,-4.42748 1.99237,-1.51273 5.57125,-1.51273 h 4.68575 v 3.61578 h -2.98855 q -2.39822,0 -3.32061,0.59033 -0.92239,0.55344 -0.92239,1.58652 0,0.8117 0.73791,1.29135 0.73792,0.44275 2.06616,0.44275 1.18066,0 2.10306,-0.55344 0.92239,-0.59033 1.43893,-1.47583 0.55343,-0.92239 0.55343,-1.88168 h 1.29135 q 0,3.76336 -1.47583,5.86642 -1.43893,2.10305 -4.72264,2.10305 z"
           style="font-weight:bold;font-family:Figtree;-inkscape-font-specification:'Figtree Bold';text-align:center;text-anchor:middle;fill:#111827"
           id="path1643" />
        <path
           d="m 160.89352,153.09581 q -0.99619,0 -2.21375,-0.40585 -1.18066,-0.36896 -2.10305,-0.8855 l 1.80789,-3.94784 q 0.62722,0.33207 1.14376,0.51654 0.55344,0.22138 0.95929,0.22138 0.77481,0 1.36514,-0.44275 0.59033,-0.40585 0.95929,-1.21756 l 2.17685,-5.1285 5.86641,-14.97965 h 5.34988 l -8.37532,20.03436 q -0.77481,1.84479 -1.62341,3.24682 -0.84861,1.43893 -2.10306,2.21374 -1.21756,0.77481 -3.20992,0.77481 z m 2.80407,-7.82188 -8.44912,-18.44785 h 5.34988 l 6.16158,14.97965 1.58652,3.4682 z"
           style="font-weight:bold;font-family:Figtree;-inkscape-font-specification:'Figtree Bold';text-align:center;text-anchor:middle;fill:#111827"
           id="path1645" />
        <path
           d="m 186.20395,145.71667 q -2.73028,0 -4.83334,-1.21755 -2.10305,-1.25446 -3.32061,-3.4313 -1.18066,-2.17685 -1.18066,-5.01782 0,-2.84097 1.21755,-5.01781 1.25446,-2.17685 3.39441,-3.39441 2.17685,-1.25445 4.98092,-1.25445 2.39822,0 4.42748,1.29135 2.06616,1.25445 3.32062,3.72646 1.25445,2.43512 1.25445,5.94021 h -4.94402 q 0.0369,-2.43512 -0.51654,-3.87405 -0.51654,-1.47583 -1.47583,-2.10305 -0.95929,-0.66413 -2.25064,-0.66413 -1.43893,0 -2.43512,0.59034 -0.99618,0.59033 -1.51272,1.80789 -0.47964,1.18066 -0.47964,3.09923 0,1.66031 0.66412,2.76718 0.66412,1.10687 1.77099,1.6972 1.10687,0.55344 2.43512,0.55344 1.43893,0 2.32443,-0.62723 0.92239,-0.62722 1.40203,-1.62341 l 4.57507,1.77099 q -0.77481,1.54962 -2.02926,2.69339 -1.21756,1.10687 -2.91476,1.6972 -1.69721,0.59033 -3.87405,0.59033 z m -6.16158,-8.37532 0.0369,-3.80026 h 12.98729 v 3.80026 z"
           style="font-weight:bold;font-family:Figtree;-inkscape-font-specification:'Figtree Bold';text-align:center;text-anchor:middle;fill:#111827"
           id="path1647" />
        <path
           d="m 198.30577,145.27393 v -18.44785 h 4.57506 l 0.29517,3.3944 v 15.05345 z m 12.21247,0 v -9.4453 l 4.87024,-1.10687 v 10.55217 z m 0,-9.4453 q 0,-1.88168 -0.44274,-2.91476 -0.40586,-1.03308 -1.18067,-1.47583 -0.77481,-0.47965 -1.80789,-0.47965 -1.88168,-0.0369 -2.91476,1.14377 -0.99618,1.18066 -0.99618,3.50509 h -1.62341 q 0,-2.95165 0.8486,-4.98092 0.8855,-2.06616 2.43512,-3.13613 1.54962,-1.10687 3.65267,-1.10687 3.35751,0 5.1285,2.06616 1.80789,2.02926 1.771,6.27227 z"
           style="font-weight:bold;font-family:Figtree;-inkscape-font-specification:'Figtree Bold';text-align:center;text-anchor:middle;fill:#111827"
           id="path1649" />
        <path
           d="m 219.26255,145.27393 v -18.44785 h 4.57507 l 0.29517,3.3944 v 15.05345 z m 12.21248,0 v -9.4453 l 4.87023,-1.10687 v 10.55217 z m 0,-9.4453 q 0,-1.88168 -0.44275,-2.91476 -0.40585,-1.03308 -1.18066,-1.47583 -0.77481,-0.47965 -1.80789,-0.47965 -1.88168,-0.0369 -2.91476,1.14377 -0.99618,1.18066 -0.99618,3.50509 h -1.62341 q 0,-2.95165 0.8486,-4.98092 0.88549,-2.06616 2.43511,-3.13613 1.54962,-1.10687 3.65268,-1.10687 3.35751,0 5.1285,2.06616 1.80789,2.02926 1.77099,6.27227 z"
           style="font-weight:bold;font-family:Figtree;-inkscape-font-specification:'Figtree Bold';text-align:center;text-anchor:middle;fill:#111827"
           id="path1651" />
        <path
           d="m 248.55776,145.71667 q -2.73028,0 -4.83333,-1.21755 -2.10306,-1.25446 -3.32062,-3.4313 -1.18066,-2.17685 -1.18066,-5.01782 0,-2.84097 1.21756,-5.01781 1.25445,-2.17685 3.3944,-3.39441 2.17685,-1.25445 4.98092,-1.25445 2.39822,0 4.42749,1.29135 2.06615,1.25445 3.32061,3.72646 1.25445,2.43512 1.25445,5.94021 h -4.94402 q 0.0369,-2.43512 -0.51654,-3.87405 -0.51654,-1.47583 -1.47583,-2.10305 -0.95929,-0.66413 -2.25064,-0.66413 -1.43893,0 -2.43511,0.59034 -0.99619,0.59033 -1.51273,1.80789 -0.47964,1.18066 -0.47964,3.09923 0,1.66031 0.66412,2.76718 0.66412,1.10687 1.771,1.6972 1.10687,0.55344 2.43511,0.55344 1.43893,0 2.32443,-0.62723 0.92239,-0.62722 1.40204,-1.62341 l 4.57506,1.77099 q -0.77481,1.54962 -2.02926,2.69339 -1.21756,1.10687 -2.91476,1.6972 -1.6972,0.59033 -3.87405,0.59033 z m -6.16158,-8.37532 0.0369,-3.80026 h 12.98728 v 3.80026 z"
           style="font-weight:bold;font-family:Figtree;-inkscape-font-specification:'Figtree Bold';text-align:center;text-anchor:middle;fill:#111827"
           id="path1653" />
        <path
           d="m 270.14182,145.27393 v -25.82699 h 5.05471 v 25.82699 z m 4.05853,-10.40459 v -4.61196 h 10.58906 v 4.61196 z m 0,-10.81044 v -4.61196 h 12.50764 v 4.61196 z"
           style="font-weight:bold;font-family:Figtree;-inkscape-font-specification:'Figtree Bold';text-align:center;text-anchor:middle;fill:#111827"
           id="path1655" />
        <path
           d="m 298.25638,145.71667 q -2.80407,0 -5.01781,-1.21755 -2.17685,-1.25446 -3.4313,-3.4313 -1.21756,-2.17685 -1.21756,-5.01782 0,-2.84097 1.21756,-5.01781 1.21756,-2.17685 3.3944,-3.39441 2.17685,-1.25445 4.98092,-1.25445 2.84097,0 5.01782,1.25445 2.17684,1.21756 3.3944,3.39441 1.21756,2.17684 1.21756,5.01781 0,2.84097 -1.21756,5.01782 -1.21756,2.17684 -3.3944,3.4313 -2.13995,1.21755 -4.94403,1.21755 z m 0,-4.50127 q 1.36515,0 2.39823,-0.66412 1.03307,-0.66413 1.58651,-1.80789 0.59033,-1.18067 0.59033,-2.69339 0,-1.51272 -0.59033,-2.65649 -0.59033,-1.18066 -1.66031,-1.84478 -1.03308,-0.66413 -2.39822,-0.66413 -1.32824,0 -2.39822,0.66413 -1.03308,0.66412 -1.62341,1.84478 -0.59033,1.14377 -0.59033,2.65649 0,1.51272 0.59033,2.69339 0.59033,1.14376 1.66031,1.80789 1.06997,0.66412 2.43511,0.66412 z"
           style="font-weight:bold;font-family:Figtree;-inkscape-font-specification:'Figtree Bold';text-align:center;text-anchor:middle;fill:#111827"
           id="path1657" />
        <path
           d="m 314.45358,135.57036 q 0,-2.98855 1.14377,-4.94403 1.18066,-1.95547 2.98855,-2.91476 1.84479,-0.95928 3.83715,-0.95928 v 4.72264 q -1.6972,0 -3.20992,0.40586 -1.47583,0.40585 -2.39822,1.32824 -0.9224,0.92239 -0.9224,2.36133 z m -3.4313,9.70357 v -18.44785 h 4.87023 v 18.44785 z"
           style="font-weight:bold;font-family:Figtree;-inkscape-font-specification:'Figtree Bold';text-align:center;text-anchor:middle;fill:#111827"
           id="path1659" />
        <path
           d="m 325.00574,145.27393 v -18.44785 h 4.57507 l 0.29516,3.3944 v 15.05345 z m 12.21248,0 v -9.4453 l 4.87023,-1.10687 v 10.55217 z m 12.24937,0 v -9.4453 l 4.87023,-1.10687 v 10.55217 z m -12.24937,-9.4453 q 0,-1.88168 -0.44275,-2.91476 -0.40585,-1.03308 -1.18066,-1.47583 -0.77481,-0.47965 -1.80789,-0.47965 -1.88168,-0.0369 -2.91476,1.14377 -0.99619,1.18066 -0.99619,3.50509 h -1.62341 q 0,-2.95165 0.8486,-4.98092 0.8855,-2.06616 2.43512,-3.13613 1.54962,-1.10687 3.65267,-1.10687 3.35751,0 5.12851,2.06616 1.80789,2.02926 1.77099,6.27227 z m 12.24937,0 q 0,-1.88168 -0.44275,-2.91476 -0.44275,-1.03308 -1.21756,-1.47583 -0.73791,-0.47965 -1.80789,-0.47965 -1.88168,-0.0369 -2.91476,1.14377 -0.99618,1.18066 -0.99618,3.50509 h -1.62341 q 0,-2.95165 0.8486,-4.98092 0.8855,-2.06616 2.43512,-3.13613 1.58651,-1.10687 3.68957,-1.10687 3.3575,0 5.1285,2.06616 1.77099,2.02926 1.77099,6.27227 z"
           style="font-weight:bold;font-family:Figtree;-inkscape-font-specification:'Figtree Bold';text-align:center;text-anchor:middle;fill:#111827"
           id="path1661" />
        <path
           d="m 365.11135,145.71667 q -1.77099,0 -3.32061,-0.51654 -1.54962,-0.55343 -2.73028,-1.54961 -1.18066,-1.03308 -1.84479,-2.50891 l 4.16922,-1.91858 q 0.55343,0.8855 1.51272,1.54962 0.95929,0.62723 2.21374,0.62723 1.21756,0 1.88168,-0.33206 0.66413,-0.36896 0.66413,-1.03308 0,-0.66413 -0.55344,-0.95929 -0.51654,-0.33206 -1.43893,-0.55344 l -1.6972,-0.44275 q -2.65649,-0.70101 -4.20611,-2.21374 -1.51273,-1.54962 -1.51273,-3.54198 0,-2.84097 1.80789,-4.39059 1.84479,-1.54962 5.2023,-1.54962 1.73409,0 3.20992,0.51654 1.51272,0.51654 2.5827,1.43893 1.06998,0.92239 1.47583,2.13995 l -4.02163,1.84479 q -0.25827,-0.73792 -1.25446,-1.18067 -0.99618,-0.47964 -1.99236,-0.47964 -0.99619,0 -1.54962,0.44275 -0.51654,0.40585 -0.51654,1.14376 0,0.47965 0.51654,0.81171 0.51654,0.29517 1.47582,0.51654 l 2.39822,0.59033 q 1.80789,0.44275 2.87787,1.43893 1.10687,0.95929 1.58651,2.17685 0.51654,1.18066 0.51654,2.32443 0,1.6603 -0.99618,2.95165 -0.95929,1.25446 -2.65649,1.95548 -1.66031,0.70101 -3.80026,0.70101 z"
           style="font-weight:bold;font-family:Figtree;-inkscape-font-specification:'Figtree Bold';text-align:center;text-anchor:middle;fill:#111827"
           id="path1663" />
      </g>
      <circle
         style="fill:#6366f1;fill-opacity:1;stroke:none;stroke-width:3.15602;stroke-dasharray:none"
         id="path2707-1-3"
         cx="73.763634"
         cy="131.40752"
         r="24.597136" />
      <path
         style="fill:#ffffff;stroke-width:0.363057"
         d="m 63.548443,131.7215 c -0.01743,0.11563 -1.553803,1.23302 -1.308025,2.5124 0.787244,4.32679 5.45702,8.79779 8.100437,10.78098 2.018224,1.49256 5.348657,2.48903 5.534007,2.30374 0.212077,-0.18535 -1.409242,-1.74089 -3.824777,-5.42936 -3.788986,-6.58969 -4.398084,-9.34612 -5.698265,-10.15236 -0.917687,-0.43055 -1.899519,-0.15398 -1.9865,-0.24229 -0.04067,-0.0523 -0.421831,-0.26263 -0.866032,-2.08598 -0.27483,-1.12755 -0.52235,-3.49782 -0.586206,-3.49602 -0.06914,-0.0116 -0.636872,1.14591 -0.703459,1.40401 -0.07553,0.2144 -0.09761,1.35642 0.374187,2.54993 0.549077,1.2713 0.975615,1.74281 0.964401,1.85495 z"
         id="path991-6"
         sodipodi:nodetypes="cccccccscccc" />
      <use
         x="0"
         y="0"
         xlink:href="#path991-6"
         id="use1328-7"
         transform="translate(5.2627765,-5.5194809)" />
      <use
         x="0"
         y="0"
         xlink:href="#path991-6"
         id="use1330-5"
         transform="translate(11.103163,-10.461355)" />
    </g>
  </g>
</svg>
